<svg xmlns="http://www.w3.org/2000/svg" viewBox="0 0 2130 770" width="2130" height="770">
<path d="M 352,394 L 317,394 L 294,401 L 280,410 L 270,420 L 262,432 L 254,454 L 190,685 L 181,704 L 171,719 L 147,742 L 195,728 L 233,709 L 261,686 L 278,663 L 292,629 Z M 2109,281 L 1804,282 L 1744,295 L 1697,321 L 1659,366 L 1639,423 L 1638,479 L 1659,523 L 1690,544 L 1737,556 L 1925,565 L 1948,584 L 1948,615 L 1928,644 L 1895,656 L 1697,659 L 1649,669 L 1603,696 L 1560,749 L 1894,748 L 1958,734 L 2002,707 L 2036,666 L 2056,609 L 2058,550 L 2041,511 L 2005,485 L 1966,474 L 1769,465 L 1748,448 L 1748,416 L 1766,389 L 1800,375 L 1988,372 L 2020,364 L 2068,334 Z M 890,281 L 578,283 L 520,296 L 477,321 L 440,364 L 421,416 L 419,480 L 437,520 L 470,544 L 506,554 L 673,560 L 712,567 L 730,585 L 728,619 L 707,646 L 673,657 L 484,659 L 429,670 L 379,701 L 341,749 L 679,748 L 734,736 L 781,709 L 816,668 L 836,613 L 839,550 L 817,505 L 786,485 L 746,475 L 550,465 L 528,447 L 528,417 L 545,390 L 582,375 L 756,373 L 796,365 L 850,332 Z M 978,340 L 942,417 L 867,749 L 966,750 L 977,744 L 1052,419 L 1074,384 L 1108,374 L 1176,377 L 1197,404 L 1193,455 L 1126,749 L 1234,748 L 1313,413 L 1335,384 L 1373,372 L 1434,377 L 1458,406 L 1456,442 L 1387,749 L 1496,749 L 1570,407 L 1562,346 L 1534,309 L 1468,285 L 1378,281 L 1319,293 L 1271,322 L 1215,288 L 1122,280 L 1038,295 Z M 387,247 L 269,270 L 204,286 L 173,302 L 145,329 L 130,355 L 20,749 L 69,749 L 91,745 L 123,730 L 145,708 L 164,667 L 224,445 L 238,412 L 255,387 L 275,367 L 319,337 L 347,311 L 374,275 Z M 322,21 L 305,26 L 291,33 L 278,43 L 268,54 L 257,73 L 253,85 L 251,96 L 252,122 L 257,139 L 263,151 L 272,163 L 284,174 L 301,184 L 316,189 L 327,191 L 354,190 L 370,185 L 383,178 L 400,163 L 408,152 L 415,138 L 420,121 L 421,114 L 420,89 L 416,75 L 409,61 L 402,51 L 386,36 L 368,26 L 351,21 L 343,20 Z " fill="#FFFFFF" fill-rule="evenodd"/>
</svg>